<svg xmlns="http://www.w3.org/2000/svg" fill="none" viewBox="0 0 601 300" height="250" width="250"><path fill="#68598a" d="M218.526 144.905C217.186 146.575 215.735 148.382 214.089 150.353C199.943 167.289 183.69 179.3 158.605 179.3C148.819 179.3 137.263 178.426 126.197 175.457C115.187 172.503 103.902 167.268 95.6021 157.988C84.8997 146.021 77.6241 140.051 65.3242 140.347C60.1244 140.472 55.5134 142.832 50.2648 147.358C47.6183 149.641 45.0424 152.268 42.2176 155.207C41.9279 155.509 41.6345 155.815 41.3377 156.124L41.3364 156.126C38.8511 158.717 36.1273 161.557 33.3172 164.132C32.8401 164.569 32.3156 165.074 31.7421 165.626C27.2888 169.914 19.8361 177.3 8.73603 177.552C7.409 177.582 4.04755 177.708 0.796875 177.708V117.685C2.34987 118.027 6.21578 117.362 8.32573 117.314C9.7803 117.281 11.0189 116.848 12.6902 115.678C14.2212 114.605 15.5148 113.391 17.3711 111.649C18.0811 110.983 18.8735 110.24 19.7929 109.397C22.0957 107.287 24.3557 104.932 26.9138 102.267C27.1997 101.969 27.4894 101.667 27.7833 101.361C30.5976 98.4324 33.7545 95.1868 37.1895 92.2246C44.1039 86.2618 53.0506 80.6449 64.8422 80.3611C86.7455 79.8339 99.3964 92.225 110.523 104.666C115.311 110.02 122.532 113.774 131.388 116.15C140.189 118.511 149.86 119.308 158.605 119.308C175.581 119.308 186.724 111.912 198.727 97.5423C199.735 96.3352 200.806 94.9998 201.932 93.5939C205.563 89.0643 209.779 83.8031 214.393 79.7504C221.115 73.8454 229.572 69.4832 241.094 69.4832C261.812 69.4832 275.234 83.9866 285.193 94.7474L285.523 95.1041C296.817 107.305 304.497 115.291 315.244 116.12C331.001 117.335 343.143 111.867 356.08 100.58C366.267 91.6925 381.675 79.5328 401.641 84.0446C412.504 86.4994 420.626 92.6339 427.127 98.8154C430.217 101.754 433.123 104.885 435.77 107.739L436.133 108.129C438.961 111.176 441.507 113.899 444.118 116.327C456.014 127.385 466.79 132.896 479.481 129.474C484.252 128.188 488.333 124.983 493.12 119.786C494.729 118.039 496.193 116.328 497.778 114.477L497.779 114.475C498.63 113.48 499.517 112.444 500.479 111.341C503.062 108.377 505.985 105.179 509.304 102.317C514.52 97.8196 521.445 93.4258 529.182 91.335C537.111 89.1921 546.428 89.3862 554.916 95.1063C557.961 97.1589 560.92 99.5599 563.599 101.734L563.792 101.89C566.636 104.198 569.306 106.358 572.185 108.361C580.543 114.177 590.827 117.081 601 117.528V177.5C586.698 176.871 572.543 172.974 560.747 164.765C557.207 162.302 554.015 159.712 551.26 157.476L551.176 157.409C548.288 155.065 545.97 153.193 543.724 151.679C541.219 149.991 538.245 149.595 534.408 150.633C530.377 151.722 526.059 154.278 522.378 157.452C520.163 159.362 517.989 161.695 515.567 164.473C514.86 165.284 514.1 166.171 513.307 167.096L513.306 167.098C511.576 169.118 509.688 171.322 507.843 173.325C502.298 179.345 495.037 185.987 484.695 188.775C461.659 194.986 443.815 183.352 430.487 170.963C427.255 167.958 424.228 164.704 421.461 161.724L421.252 161.499C418.484 158.516 415.958 155.795 413.331 153.297C407.981 148.21 403.011 144.851 397.225 143.543C388.024 141.464 379.76 146.462 369.242 155.638C353.61 169.277 336.376 177.8 313.704 176.052C294.68 174.585 281.935 160.738 272.372 150.348C271.85 149.781 271.337 149.223 270.833 148.679C259.803 136.763 252.007 129.475 241.094 129.475C235.354 129.475 231.43 131.406 227.606 134.764C224.413 137.569 221.799 140.826 218.526 144.905Z"></path></svg>