<svg width="124" height="124" viewBox="0 0 124 124" fill="none" xmlns="http://www.w3.org/2000/svg">
<path d="M41.7985 60.0937H17.5668C17.9802 35.9653 22.7335 31.987 37.5618 23.2037C39.2668 22.1703 39.8352 20.0003 38.8018 18.2437C38.5639 17.8369 38.2473 17.4817 37.8705 17.1986C37.4938 16.9155 37.0645 16.7102 36.6076 16.5948C36.1507 16.4794 35.6754 16.4561 35.2094 16.5263C34.7434 16.5965 34.2961 16.7588 33.8935 17.0037C16.4302 27.337 10.3335 33.6403 10.3335 63.6587V91.507C10.3335 100.342 17.5152 107.472 26.2985 107.472H41.7985C50.8918 107.472 57.7635 100.6 57.7635 91.507V76.007C57.7635 66.9653 50.8918 60.0937 41.7985 60.0937ZM97.6967 60.0937H73.465C73.8783 35.9653 78.6317 31.987 93.46 23.2037C95.165 22.1703 95.7333 20.0003 94.7 18.2437C94.4566 17.8357 94.1349 17.4798 93.7536 17.1965C93.3722 16.9132 92.9386 16.7081 92.4777 16.5928C92.0168 16.4776 91.5377 16.4546 91.0679 16.5251C90.598 16.5956 90.1468 16.7582 89.74 17.0037C72.2767 27.337 66.18 33.6403 66.18 63.7103V91.5587C66.18 100.394 73.3617 107.524 82.145 107.524H97.645C106.738 107.524 113.61 100.652 113.61 91.5587V76.0587C113.662 66.9653 106.79 60.0937 97.6967 60.0937Z" fill="#CACACA" fill-opacity="0.2"/>
</svg>
