<svg width="58" height="43" viewBox="0 0 58 43" fill="none" xmlns="http://www.w3.org/2000/svg">
<rect y="2.19023" width="39.8625" height="39.8625" fill="white"/>
<path d="M32.6504 15.1882C34.5942 15.1882 36.1361 15.7769 37.2762 16.9544C38.435 18.1319 39.0144 19.7672 39.0144 21.8605V31H34.2484V22.5053C34.2484 21.4961 33.9774 20.7204 33.4354 20.1784C32.9121 19.6177 32.1832 19.3374 31.2487 19.3374C30.3142 19.3374 29.5759 19.6177 29.0339 20.1784C28.5106 20.7204 28.2489 21.4961 28.2489 22.5053V31H23.4829V22.5053C23.4829 21.4961 23.2119 20.7204 22.6699 20.1784C22.1466 19.6177 21.4177 19.3374 20.4832 19.3374C19.5487 19.3374 18.8104 19.6177 18.2684 20.1784C17.7451 20.7204 17.4834 21.4961 17.4834 22.5053V31H12.6894V15.3564H17.4834V17.3188C17.9694 16.6647 18.6048 16.1507 19.3898 15.7769C20.1748 15.3844 21.0626 15.1882 22.0531 15.1882C23.2306 15.1882 24.2773 15.4405 25.1931 15.9451C26.1276 16.4497 26.8565 17.1693 27.3798 18.1038C27.9218 17.2441 28.6601 16.5432 29.5946 16.0012C30.5291 15.4592 31.5477 15.1882 32.6504 15.1882Z" fill="#1E1D22"/>
<path d="M57.1137 22.9259C57.1137 23.3744 57.0857 23.8417 57.0296 24.3276H46.18C46.2548 25.2995 46.5632 26.0471 47.1052 26.5704C47.6659 27.0751 48.3481 27.3274 49.1517 27.3274C50.3479 27.3274 51.1796 26.8227 51.6469 25.8135H56.7493C56.4876 26.8414 56.011 27.7666 55.3195 28.589C54.6466 29.4113 53.7962 30.0561 52.7683 30.5234C51.7403 30.9906 50.5909 31.2243 49.3199 31.2243C47.7874 31.2243 46.423 30.8972 45.2268 30.243C44.0306 29.5889 43.0961 28.6544 42.4233 27.4395C41.7505 26.2247 41.414 24.8042 41.414 23.1782C41.414 21.5521 41.7411 20.1317 42.3953 18.9168C43.0681 17.702 44.0026 16.7675 45.1988 16.1133C46.3949 15.4592 47.7687 15.1321 49.3199 15.1321C50.8338 15.1321 52.1795 15.4498 53.357 16.0853C54.5345 16.7208 55.4503 17.6272 56.1044 18.8047C56.7773 19.9822 57.1137 21.3559 57.1137 22.9259ZM52.2076 21.6643C52.2076 20.8419 51.9272 20.1878 51.3665 19.7018C50.8058 19.2159 50.1049 18.9729 49.2639 18.9729C48.4602 18.9729 47.778 19.2065 47.2173 19.6738C46.6753 20.141 46.3389 20.8045 46.208 21.6643H52.2076Z" fill="white"/>
</svg>
